<svg xmlns="http://www.w3.org/2000/svg" width="1200" height="630" viewBox="0 0 1200 630" role="img" aria-label="Pinit  one human, one note, one day">
  <defs>
    <linearGradient id="bg" x1="0" y1="0" x2="1" y2="1">
      <stop offset="0%" stop-color="#04060f"/>
      <stop offset="55%" stop-color="#0a1228"/>
      <stop offset="100%" stop-color="#1a1020"/>
    </linearGradient>
    <linearGradient id="pin" x1="0" y1="0" x2="0" y2="1">
      <stop offset="0%" stop-color="#ececec"/>
      <stop offset="100%" stop-color="#888"/>
    </linearGradient>
  </defs>
  <rect width="1200" height="630" fill="url(#bg)"/>
  <g fill="#fff" opacity="0.45">
    <circle cx="120" cy="90" r="1.2"/><circle cx="340" cy="140" r="1"/><circle cx="890" cy="80" r="1.4"/>
    <circle cx="1020" cy="200" r="1"/><circle cx="760" cy="120" r="1.2"/><circle cx="980" cy="420" r="1"/>
    <circle cx="180" cy="380" r="1"/><circle cx="450" cy="520" r="1.2"/><circle cx="1080" cy="540" r="1"/>
  </g>
  <text x="600" y="175" text-anchor="middle" fill="#c9a84c" font-family="Georgia, serif" font-size="42" letter-spacing="12">PINIT</text>
  <text x="600" y="245" text-anchor="middle" fill="#f5c49a" font-family="Georgia, serif" font-size="52" font-style="italic">One human À One note À One day</text>
  <g transform="translate(390 290) rotate(-3 210 95)">
    <rect x="0" y="0" width="420" height="190" rx="6" fill="#f5e6a8"/>
    <circle cx="210" cy="-10" r="16" fill="url(#pin)"/>
    <text x="36" y="72" fill="#1a1612" font-family="Georgia, serif" font-size="34" font-style="italic">Leave your trace on the world wall.</text>
    <line x1="36" y1="130" x2="384" y2="130" stroke="#1a1612" stroke-opacity="0.12" stroke-width="2"/>
    <text x="36" y="165" fill="#1a1612" fill-opacity="0.45" font-family="Arial, sans-serif" font-size="22">www.pinitworld.com</text>
  </g>
  <text x="600" y="580" text-anchor="middle" fill="#c9a84c" fill-opacity="0.7" font-family="Arial, sans-serif" font-size="28">A daily global notes wall</text>
</svg>
